<svg xmlns="http://www.w3.org/2000/svg" viewBox="0 0 128 128" width="128" height="128" role="img" aria-label="Cats Shields icon">
  <defs>
    <linearGradient id="tile" x1="18" y1="14" x2="112" y2="118" gradientUnits="userSpaceOnUse">
      <stop offset="0" stop-color="#28356b"/>
      <stop offset="0.55" stop-color="#1e2347"/>
      <stop offset="1" stop-color="#15182f"/>
    </linearGradient>
    <linearGradient id="fur" x1="42" y1="28" x2="84" y2="98" gradientUnits="userSpaceOnUse">
      <stop offset="0" stop-color="#ffd889"/>
      <stop offset="1" stop-color="#ffb957"/>
    </linearGradient>
    <linearGradient id="mark" x1="84" y1="18" x2="109" y2="44" gradientUnits="userSpaceOnUse">
      <stop offset="0" stop-color="#ff9668"/>
      <stop offset="1" stop-color="#ff5e45"/>
    </linearGradient>
    <filter id="shadow" x="-20%" y="-20%" width="140%" height="140%">
      <feDropShadow dx="0" dy="8" stdDeviation="10" flood-color="#0a0d1d" flood-opacity="0.35"/>
    </filter>
  </defs>

  <rect x="8" y="8" width="112" height="112" rx="30" fill="url(#tile)"/>
  <rect x="11" y="11" width="106" height="106" rx="27" fill="none" stroke="#ffd28a" stroke-opacity="0.16"/>
  <circle cx="96" cy="32" r="16" fill="url(#mark)"/>
  <path d="M88 24 104 40" stroke="#fff3de" stroke-width="5" stroke-linecap="round"/>
  <path d="M104 24 88 40" stroke="#fff3de" stroke-width="5" stroke-linecap="round"/>
  <g opacity="0.14">
    <circle cx="96" cy="32" r="5" fill="none" stroke="#fff3de" stroke-width="1.5"/>
    <path d="M91 32h-6M107 32h-6M96 27v-6M96 43v-6M92.5 28.5 89 25M103 39l-3.5-3.5M99.5 28.5 103 25M89 39l3.5-3.5" stroke="#fff3de" stroke-width="1.5" stroke-linecap="round"/>
  </g>

  <g filter="url(#shadow)">
    <path d="M36 49 28 24l23 16" fill="url(#fur)"/>
    <path d="M92 49 100 24 77 40" fill="url(#fur)"/>
    <path d="M39 46 34 31l14 10" fill="#ff9ea1" opacity="0.8"/>
    <path d="M89 46 94 31 80 41" fill="#ff9ea1" opacity="0.8"/>
    <path d="M64 98c20.8 0 38-14.9 38-34 0-18.7-17.2-33-38-33S26 45.3 26 64c0 19.1 17.2 34 38 34Z" fill="url(#fur)"/>
    <path d="M48 52c4-4.5 7.8-6.8 16-6.8 8.1 0 12.3 2.3 16 6.8" fill="none" stroke="#e19a43" stroke-width="4" stroke-linecap="round"/>
    <ellipse cx="50.5" cy="66" rx="7.2" ry="9" fill="#fff7eb"/>
    <ellipse cx="77.5" cy="66" rx="7.2" ry="9" fill="#fff7eb"/>
    <ellipse cx="50.5" cy="66.5" rx="3.9" ry="5.8" fill="#1a203f"/>
    <ellipse cx="77.5" cy="66.5" rx="3.9" ry="5.8" fill="#1a203f"/>
    <circle cx="52.5" cy="64.2" r="1.8" fill="#ffffff"/>
    <circle cx="79.5" cy="64.2" r="1.8" fill="#ffffff"/>
    <path d="M64 73 58.8 78.6h10.4Z" fill="#f57b81"/>
    <path d="M59.4 79.5c-2.5 4-5 5.8-8.7 5.8" fill="none" stroke="#6a3d22" stroke-width="2.3" stroke-linecap="round"/>
    <path d="M68.6 79.5c2.5 4 5 5.8 8.7 5.8" fill="none" stroke="#6a3d22" stroke-width="2.3" stroke-linecap="round"/>
    <path d="M28 75.5c7.7 0 14.4 1.2 24.5 3.4" fill="none" stroke="#6a3d22" stroke-width="2" stroke-linecap="round"/>
    <path d="M28 82c8.1-.3 14.4-.1 24.5 1.2" fill="none" stroke="#6a3d22" stroke-width="2" stroke-linecap="round"/>
    <path d="M100 75.5c-7.7 0-14.4 1.2-24.5 3.4" fill="none" stroke="#6a3d22" stroke-width="2" stroke-linecap="round"/>
    <path d="M100 82c-8.1-.3-14.4-.1-24.5 1.2" fill="none" stroke="#6a3d22" stroke-width="2" stroke-linecap="round"/>
  </g>
</svg>
